<svg width="1536" height="982" viewBox="0 0 1536 982" fill="none" xmlns="http://www.w3.org/2000/svg">
<rect width="1536" height="982" fill="url(#paint0_linear_3_162)"/>
<path d="M565.457 471.344H597.098C596.577 481.109 593.908 489.736 589.09 497.223C584.337 504.645 577.729 510.471 569.266 514.703C560.802 518.87 550.743 520.953 539.09 520.953C529.78 520.953 521.447 519.358 514.09 516.168C506.733 512.978 500.483 508.421 495.34 502.496C490.262 496.507 486.355 489.312 483.621 480.914C480.952 472.451 479.617 462.913 479.617 452.301V443.609C479.617 432.997 481.017 423.46 483.816 414.996C486.616 406.533 490.62 399.306 495.828 393.316C501.036 387.327 507.286 382.737 514.578 379.547C521.87 376.357 530.008 374.762 538.992 374.762C551.102 374.762 561.323 376.943 569.656 381.305C577.99 385.667 584.435 391.656 588.992 399.273C593.615 406.891 596.382 415.582 597.293 425.348H565.555C565.294 419.814 564.253 415.159 562.43 411.383C560.607 407.542 557.807 404.645 554.031 402.691C550.255 400.738 545.242 399.762 538.992 399.762C534.435 399.762 530.431 400.608 526.98 402.301C523.595 403.993 520.763 406.63 518.484 410.211C516.271 413.792 514.611 418.349 513.504 423.883C512.397 429.352 511.844 435.862 511.844 443.414V452.301C511.844 459.788 512.332 466.266 513.309 471.734C514.285 477.203 515.848 481.728 517.996 485.309C520.21 488.889 523.042 491.559 526.492 493.316C529.943 495.074 534.142 495.953 539.09 495.953C544.754 495.953 549.474 495.074 553.25 493.316C557.026 491.493 559.923 488.759 561.941 485.113C563.96 481.467 565.132 476.878 565.457 471.344ZM608.816 467.242V465.191C608.816 457.444 609.923 450.315 612.137 443.805C614.35 437.229 617.605 431.533 621.902 426.715C626.199 421.897 631.473 418.154 637.723 415.484C643.973 412.75 651.134 411.383 659.207 411.383C667.41 411.383 674.637 412.75 680.887 415.484C687.202 418.154 692.508 421.897 696.805 426.715C701.102 431.533 704.357 437.229 706.57 443.805C708.784 450.315 709.891 457.444 709.891 465.191V467.242C709.891 474.924 708.784 482.053 706.57 488.629C704.357 495.139 701.102 500.836 696.805 505.719C692.508 510.536 687.234 514.28 680.984 516.949C674.734 519.618 667.54 520.953 659.402 520.953C651.329 520.953 644.135 519.618 637.82 516.949C631.505 514.28 626.199 510.536 621.902 505.719C617.605 500.836 614.35 495.139 612.137 488.629C609.923 482.053 608.816 474.924 608.816 467.242ZM639.383 465.191V467.242C639.383 471.409 639.708 475.315 640.359 478.961C641.076 482.607 642.215 485.797 643.777 488.531C645.34 491.266 647.391 493.414 649.93 494.977C652.534 496.474 655.691 497.223 659.402 497.223C663.113 497.223 666.238 496.474 668.777 494.977C671.316 493.414 673.367 491.266 674.93 488.531C676.492 485.797 677.599 482.607 678.25 478.961C678.966 475.315 679.324 471.409 679.324 467.242V465.191C679.324 461.09 678.966 457.249 678.25 453.668C677.599 450.022 676.492 446.799 674.93 444C673.367 441.201 671.284 439.02 668.68 437.457C666.141 435.895 662.983 435.113 659.207 435.113C655.561 435.113 652.469 435.895 649.93 437.457C647.391 439.02 645.34 441.201 643.777 444C642.215 446.799 641.076 450.022 640.359 453.668C639.708 457.249 639.383 461.09 639.383 465.191ZM820.242 494.391V519H748.465V494.391H820.242ZM759.305 376.812V519H727.469V376.812H759.305ZM890.262 493.805V448.492C890.262 445.302 889.773 442.568 888.797 440.289C887.82 438.01 886.29 436.22 884.207 434.918C882.124 433.616 879.422 432.965 876.102 432.965C873.302 432.965 870.861 433.453 868.777 434.43C866.759 435.406 865.197 436.806 864.09 438.629C863.048 440.452 862.527 442.698 862.527 445.367H832.059C832.059 440.615 833.133 436.188 835.281 432.086C837.43 427.984 840.49 424.371 844.461 421.246C848.497 418.121 853.315 415.712 858.914 414.02C864.513 412.262 870.796 411.383 877.762 411.383C886.03 411.383 893.387 412.783 899.832 415.582C906.342 418.316 911.486 422.451 915.262 427.984C919.038 433.453 920.926 440.354 920.926 448.688V492.926C920.926 499.306 921.284 504.319 922 507.965C922.781 511.546 923.888 514.671 925.32 517.34V519H894.559C893.126 515.94 892.052 512.164 891.336 507.672C890.62 503.115 890.262 498.492 890.262 493.805ZM894.07 454.547L894.266 471.344H879.129C875.743 471.344 872.814 471.767 870.34 472.613C867.931 473.46 865.978 474.632 864.48 476.129C862.983 477.561 861.876 479.254 861.16 481.207C860.509 483.095 860.184 485.178 860.184 487.457C860.184 489.605 860.704 491.559 861.746 493.316C862.788 495.009 864.22 496.344 866.043 497.32C867.866 498.297 869.982 498.785 872.391 498.785C876.362 498.785 879.747 498.004 882.547 496.441C885.411 494.879 887.625 492.991 889.188 490.777C890.75 488.499 891.531 486.383 891.531 484.43L898.855 497.125C897.684 499.729 896.251 502.431 894.559 505.23C892.866 507.965 890.717 510.536 888.113 512.945C885.509 515.289 882.352 517.21 878.641 518.707C874.995 520.204 870.6 520.953 865.457 520.953C858.816 520.953 852.794 519.618 847.391 516.949C841.987 514.215 837.658 510.471 834.402 505.719C831.212 500.966 829.617 495.497 829.617 489.312C829.617 483.779 830.626 478.863 832.645 474.566C834.663 470.27 837.69 466.624 841.727 463.629C845.828 460.634 850.971 458.388 857.156 456.891C863.341 455.328 870.568 454.547 878.836 454.547H894.07ZM941.043 369H971.512V493.902L968.387 519H941.043V369ZM1037.43 464.996V467.047C1037.43 475.055 1036.58 482.346 1034.89 488.922C1033.26 495.497 1030.76 501.194 1027.37 506.012C1023.99 510.764 1019.72 514.443 1014.58 517.047C1009.43 519.651 1003.38 520.953 996.414 520.953C989.969 520.953 984.435 519.618 979.812 516.949C975.19 514.215 971.316 510.439 968.191 505.621C965.066 500.803 962.527 495.172 960.574 488.727C958.686 482.281 957.221 475.348 956.18 467.926V464.41C957.221 456.988 958.686 450.055 960.574 443.609C962.527 437.164 965.066 431.533 968.191 426.715C971.316 421.897 975.158 418.154 979.715 415.484C984.337 412.75 989.839 411.383 996.219 411.383C1003.25 411.383 1009.34 412.717 1014.48 415.387C1019.69 418.056 1023.99 421.799 1027.37 426.617C1030.76 431.37 1033.26 437.034 1034.89 443.609C1036.58 450.12 1037.43 457.249 1037.43 464.996ZM1006.96 467.047V464.996C1006.96 460.96 1006.67 457.151 1006.08 453.57C1005.56 449.99 1004.62 446.832 1003.25 444.098C1001.95 441.298 1000.09 439.117 997.684 437.555C995.34 435.927 992.312 435.113 988.602 435.113C984.956 435.113 981.863 435.732 979.324 436.969C976.785 438.206 974.734 439.964 973.172 442.242C971.609 444.456 970.47 447.158 969.754 450.348C969.038 453.538 968.647 457.086 968.582 460.992V471.344C968.647 476.552 969.331 481.109 970.633 485.016C971.935 488.922 974.051 491.949 976.98 494.098C979.91 496.181 983.849 497.223 988.797 497.223C992.573 497.223 995.633 496.507 997.977 495.074C1000.39 493.577 1002.21 491.493 1003.45 488.824C1004.75 486.155 1005.66 482.965 1006.18 479.254C1006.7 475.543 1006.96 471.474 1006.96 467.047Z" fill="white"/>
<circle cx="534.903" cy="613.078" r="60" transform="rotate(-70 534.903 613.078)" fill="#242893"/>
<circle cx="688.903" cy="612.903" r="60" transform="rotate(-70 688.903 612.903)" fill="#00FF47"/>
<circle cx="842.903" cy="612.903" r="60" transform="rotate(-70 842.903 612.903)" fill="#242893"/>
<defs>
<linearGradient id="paint0_linear_3_162" x1="-50.7937" y1="2.59265e-05" x2="1500.81" y2="1106.99" gradientUnits="userSpaceOnUse">
<stop stop-color="#2CD164" stop-opacity="0.84"/>
<stop offset="1" stop-color="#345EB1" stop-opacity="0.95"/>
</linearGradient>
</defs>
</svg>
